<?xml version="1.0" encoding="UTF-8"?>
<svg version="1.1" xmlns="http://www.w3.org/2000/svg" width="2800" height="2800">
<path d="M0 0 C242.55 0 485.1 0 735 0 C735 321.75 735 643.5 735 975 C261.45 975.33 -212.1 975.66 -700 976 C-688.25191499 987.76926852 -688.25191499 987.76926852 -676 999 C-674.48089407 1000.48064755 -672.97710319 1001.97744748 -671.5 1003.5 C-668.77170593 1006.26560408 -666.01483166 1008.91287031 -663.0625 1011.4375 C-658.95786341 1014.95342377 -655.20633262 1018.77797857 -651.41015625 1022.62109375 C-648.40102714 1025.5912066 -645.25849546 1028.3081994 -642 1031 C-643.33999498 1034.006818 -644.79845291 1035.99762609 -647.1875 1038.25 C-649.69523724 1040.68033794 -652.04696237 1043.15505658 -654.3125 1045.8125 C-657.07618029 1049.02333755 -659.98619596 1052.02267165 -663 1055 C-666.5561413 1058.51329622 -669.89058956 1062.11337053 -673.1328125 1065.9140625 C-676.25126822 1069.39786031 -679.61567754 1072.63402975 -682.9609375 1075.8984375 C-685.04126091 1077.83096046 -685.04126091 1077.83096046 -686 1080 C-689.93214301 1078.41060574 -692.33020346 1075.83657498 -695.25 1072.8125 C-699.03793722 1068.93386391 -702.91477804 1065.26045465 -707.0390625 1061.7421875 C-710.09366353 1059.02833878 -712.91661543 1056.09136248 -715.78515625 1053.18359375 C-717.77659461 1051.22025329 -719.81302578 1049.37920331 -721.9375 1047.5625 C-725.1103592 1044.84380752 -728.06338382 1041.97248325 -731 1039 C-733.91626603 1036.04816975 -736.84605835 1033.19611141 -740 1030.5 C-744.07623219 1027.01547893 -747.79550873 1023.21918019 -751.5625 1019.40625 C-753.65000635 1017.34550655 -755.77169223 1015.40484374 -758 1013.5 C-762.07623219 1010.01547893 -765.79550873 1006.21918019 -769.5625 1002.40625 C-771.65000635 1000.34550655 -773.77169223 998.40484374 -776 996.5 C-780.0748335 993.01667458 -783.79292992 989.22181292 -787.55859375 985.41015625 C-790.27202727 982.73145468 -793.10777023 980.25391882 -796.00390625 977.77734375 C-799.06803813 975.04900715 -801.90481832 972.10332092 -804.78515625 969.18359375 C-806.77659461 967.22025329 -808.81302578 965.37920331 -810.9375 963.5625 C-814.1103592 960.84380752 -817.06338382 957.97248325 -820 955 C-822.91626603 952.04816975 -825.84605835 949.19611141 -829 946.5 C-833.07623219 943.01547893 -836.79550873 939.21918019 -840.5625 935.40625 C-843.25025826 932.75295018 -846.05983923 930.30313329 -848.9296875 927.8515625 C-852.31950974 924.81991016 -855.46381153 921.54537165 -858.65625 918.30859375 C-860.58567458 916.40811054 -862.52673862 914.64481174 -864.625 912.9375 C-865.40875 912.298125 -866.1925 911.65875 -867 911 C-867 910.67 -867 910.34 -867 910 C-359.79 910 147.42 910 670 910 C670 631.48 670 352.96 670 66 C448.9 66 227.8 66 0 66 C0 44.22 0 22.44 0 0 Z " fill="#207244" transform="translate(1494,790)"/>
<path d="M0 0 C16.35071043 -0.42161815 32.69964339 -0.73842542 49.05448532 -0.93261909 C56.649669 -1.02521149 64.24146505 -1.15126919 71.83447266 -1.35791016 C78.45758959 -1.53806902 85.07825369 -1.65361122 91.70375276 -1.69359291 C95.20937974 -1.71695295 98.70799506 -1.77124162 102.21135712 -1.90314102 C123.43492321 -2.67156099 123.43492321 -2.67156099 129.31771278 1.73682404 C133.17658095 5.91818521 135.68141703 10.58245884 137.95982552 15.76092911 C139.54050167 19.16347938 141.60100205 22.10196918 143.73046875 25.1875 C144.47193481 26.31301252 145.2106186 27.44036771 145.9453125 28.5703125 C146.31043945 29.12879883 146.67556641 29.68728516 147.05175781 30.26269531 C147.42655273 30.83600586 147.80134766 31.40931641 148.1875 32 C149.00384261 33.24743748 149.82025051 34.49483224 150.63671875 35.7421875 C153.09220476 39.49409955 155.54623649 43.24696128 158 47 C158.73648375 48.12630675 159.47297441 49.25260898 160.20947266 50.37890625 C163.00153069 54.64888596 165.79341437 58.91897943 168.5847168 63.18945312 C173.88426945 71.29660577 179.19094118 79.39907153 184.5 87.5 C191.20187641 97.72618571 197.89661893 107.95699937 204.5859375 118.19140625 C210.67654346 127.50844845 216.77596368 136.8196977 222.87890625 146.12866211 C226.8842799 152.23898986 230.8844672 158.35262418 234.875 164.47265625 C235.66078758 165.67709619 236.44659453 166.8815235 237.23242188 168.0859375 C238.70915145 170.34931259 240.18414252 172.61378868 241.65820312 174.87890625 C242.64723633 176.39484375 242.64723633 176.39484375 243.65625 177.94140625 C244.23181641 178.82513916 244.80738281 179.70887207 245.40039062 180.61938477 C246.8682137 182.80386931 248.39899155 184.91184658 250 187 C252.9532047 182.59537771 255.90304002 178.18852272 258.85009766 173.77978516 C259.84792731 172.28799309 260.84659229 170.79675933 261.84619141 169.30615234 C267.56409449 160.77824251 273.17508702 152.20263215 278.58680725 143.47680664 C281.72834388 138.41454787 284.97620385 133.43632929 288.3125 128.5 C294.32652457 119.53613068 300.26946182 110.5273658 306.1875 101.5 C306.63525787 100.81711914 307.08301575 100.13423828 307.54434204 99.43066406 C310.26216141 95.28533087 312.97877434 91.1392085 315.69476318 86.99267578 C317.34728299 84.46981084 319.00012905 81.94715975 320.65298462 79.42451477 C321.82728903 77.63223779 323.00154382 75.83992829 324.17578125 74.04760742 C325.72654385 71.68057046 327.27732314 69.31354444 328.828125 66.9465332 C329.40776505 66.06181587 329.40776505 66.06181587 329.99911499 65.15922546 C330.78476515 63.96008862 331.57043007 62.76096146 332.35610962 61.56184387 C334.44139175 58.37920062 336.52635477 55.19634894 338.61083984 52.01318359 C340.86417088 48.57232591 343.1185656 45.13216688 345.37353516 41.69238281 C346.21811196 40.40370487 347.06237645 39.11482216 347.90625 37.82568359 C348.298125 37.2270752 348.69 36.6284668 349.09375 36.01171875 C349.65194915 35.15491249 349.65194915 35.15491249 350.22142506 34.280797 C351.04108039 33.03788634 351.87254773 31.80262381 352.71957684 30.57820415 C355.49274799 26.52170945 357.82213524 22.4242044 360.00434875 18.01948547 C368.44412203 2.00909844 368.44412203 2.00909844 376.04714012 -1.34375954 C384.03114066 -3.209032 392.13496278 -2.84513531 400.26729774 -2.43345451 C403.78279386 -2.28158207 407.29899115 -2.26919081 410.81726074 -2.24084473 C417.45477939 -2.16674711 424.08261145 -1.97061802 430.71589422 -1.72845697 C438.27701475 -1.45852436 445.8386436 -1.32784624 453.40339565 -1.20776653 C468.94117547 -0.95806028 484.46933124 -0.53704085 500 0 C498.81902239 3.01617317 497.67701027 5.72949506 495.84765625 8.40625 C495.19277222 9.37498047 495.19277222 9.37498047 494.5246582 10.36328125 C494.042146 11.06839844 493.55963379 11.77351562 493.0625 12.5 C491.97271432 14.11374393 490.88426736 15.72839241 489.796875 17.34375 C489.19423828 18.23835937 488.59160156 19.13296875 487.97070312 20.0546875 C484.20969382 25.67570042 480.51437684 31.33995738 476.8125 37 C475.98969467 38.25718106 475.16685919 39.5143424 474.34399414 40.77148438 C471.89497932 44.51365832 469.4473654 48.25674722 467 52 C466.26351625 53.12630675 465.52702559 54.25260898 464.79052734 55.37890625 C461.99846931 59.64888596 459.20658563 63.91897943 456.4152832 68.18945312 C451.11573052 76.29660583 445.80903019 84.39905273 440.5 92.5 C431.65697946 105.9936733 422.82651123 119.49552054 414 133 C404.77242022 147.11811059 395.5393444 161.23257102 386.29455566 175.3394165 C377.85354149 188.22007371 369.42544279 201.10915149 361 214 C355.71542075 222.08535673 350.43003902 230.17018715 345.14239502 238.25354004 C344.36122627 239.44776789 343.58010033 240.64202376 342.79901123 241.83630371 C340.71643154 245.02052817 338.63336597 248.20443265 336.54931641 251.38769531 C334.910407 253.89103951 333.27356829 256.39571917 331.63818359 258.90136719 C328.32206525 263.97642532 324.9982375 269.04132606 321.54296875 274.0234375 C321.05884521 274.72573486 320.57472168 275.42803223 320.07592773 276.15161133 C319.22855048 277.3728269 318.37091454 278.58702868 317.50024414 279.79174805 C315.46113689 282.59582459 315.46113689 282.59582459 315.26733398 285.92114258 C316.05293255 288.15019017 317.03048385 289.92173458 318.30078125 291.9140625 C318.77668701 292.66502197 319.25259277 293.41598145 319.74291992 294.18969727 C320.26088135 294.99334717 320.77884277 295.79699707 321.3125 296.625 C321.85302002 297.4718335 322.39354004 298.31866699 322.95043945 299.19116211 C326.94806659 305.42922402 331.03345385 311.60649384 335.16113281 317.7590332 C339.51055994 324.24510602 343.79330474 330.77338297 348.0625 337.3125 C348.77752686 338.40763916 349.49255371 339.50277832 350.22924805 340.63110352 C351.34125099 342.33435098 352.45321555 344.03762343 353.56504822 345.74098206 C357.46924767 351.72126783 361.38380483 357.69475298 365.29904175 363.66781616 C372.40205996 374.50419216 379.49709815 385.34574755 386.5859375 396.19140625 C391.88516914 404.29785168 397.19136191 412.3997135 402.5 420.5 C408.50525745 429.6632364 414.50597557 438.82940915 420.5 448 C426.45308003 457.10761449 432.41158354 466.21165189 438.375 475.3125 C438.76975525 475.91494537 439.1645105 476.51739075 439.57122803 477.13809204 C442.38064301 481.42550983 445.19029475 485.71277244 448 490 C451.20849546 494.89572711 454.41688691 499.79152232 457.625 504.6875 C458.01991638 505.29018707 458.41483276 505.89287415 458.82171631 506.51382446 C464.38604281 515.00601744 469.94506604 523.50165897 475.5 532 C481.27192406 540.82937326 487.04518889 549.65786614 492.82373047 558.48291016 C493.63266424 559.7184712 494.44142834 560.95414336 495.25 562.18994141 C496.01436205 563.35811128 496.77899564 564.52610353 497.54391479 565.69390869 C498.64103145 567.36923346 499.73678769 569.04544887 500.83251953 570.72167969 C502.31640263 572.96605705 503.81179066 575.19436802 505.33544922 577.41113281 C506.06908691 578.48459961 506.80272461 579.55806641 507.55859375 580.6640625 C508.22044678 581.62006348 508.8822998 582.57606445 509.56420898 583.56103516 C511 586 511 586 511 589 C494.7100994 589.25728368 478.42086044 589.45109042 462.12941742 589.56993389 C454.56442742 589.62658944 447.00070171 589.70378465 439.43652344 589.82983398 C432.84129366 589.93968412 426.24697952 590.0104878 419.65086031 590.03497344 C416.15959554 590.04928252 412.67094939 590.08274682 409.18052673 590.16303062 C405.27806611 590.25205862 401.37813586 590.25387654 397.47460938 590.2487793 C396.32517853 590.28832733 395.17574768 590.32787537 393.9914856 590.36862183 C389.03083413 590.29859486 386.16912672 590.14401087 382.53033257 586.58338737 C380.48527125 583.80041788 378.70697859 580.99955602 377 578 C376.26797363 576.90913086 375.53594727 575.81826172 374.78173828 574.69433594 C374.21696777 573.80004883 373.65219727 572.90576172 373.0703125 571.984375 C372.42602295 570.96956055 371.7817334 569.95474609 371.11791992 568.90917969 C370.46025635 567.86665039 369.80259277 566.82412109 369.125 565.75 C367.7080699 563.52017299 366.29010691 561.29100198 364.87109375 559.0625 C364.19804199 558.00546875 363.52499023 556.9484375 362.83154297 555.859375 C360.2919042 551.89453238 357.68648469 547.97886021 355.05883789 544.07177734 C350.67429834 537.54063106 346.37039326 530.95680992 342.0625 524.375 C341.65560944 523.7534201 341.24871887 523.13184021 340.82949829 522.49142456 C339.15362681 519.93120144 337.47791466 517.37087419 335.80250549 514.81034851 C332.91825312 510.40237277 330.03212713 505.99562988 327.14453125 501.58984375 C326.74941849 500.98698547 326.35430573 500.3841272 325.94721985 499.76300049 C325.15287416 498.5510041 324.35852704 497.33900866 323.56417847 496.12701416 C316.50687956 485.35859785 309.45762681 474.58494857 302.41357422 463.80786133 C297.51557157 456.31515799 292.6118942 448.82619456 287.70526123 441.33914185 C281.45672717 431.80432883 275.2083185 422.26942906 268.96658325 412.73016357 C267.89301458 411.09002174 266.81846385 409.45052286 265.74389648 407.81103516 C262.80186236 403.31634896 259.87013835 398.81795816 257.01171875 394.26953125 C256.58713379 393.59591553 256.16254883 392.9222998 255.72509766 392.22827148 C254.66549474 390.53918167 253.61542917 388.84411838 252.56640625 387.1484375 C252.04949219 386.43945312 251.53257812 385.73046875 251 385 C250.34 385 249.68 385 249 385 C247.75987629 386.47827748 247.75987629 386.47827748 246.55859375 388.4609375 C246.06665527 389.22849365 245.5747168 389.9960498 245.06787109 390.78686523 C244.52984863 391.64094971 243.99182617 392.49503418 243.4375 393.375 C242.25191168 395.2282547 241.06568261 397.08109961 239.87890625 398.93359375 C239.24742676 399.92343262 238.61594727 400.91327148 237.96533203 401.93310547 C234.6382547 407.12499931 231.25468329 412.27975988 227.875 417.4375 C226.79273597 419.09188978 225.71047339 420.74628051 224.62834167 422.40075684 C219.18885461 430.7161987 213.74205122 439.02685171 208.2956543 447.33776855 C199.85426807 460.21897129 191.425804 473.10859885 183 486 C173.37424941 500.7273082 163.74280286 515.45083211 154.09741211 530.1652832 C150.23040222 536.06519544 146.36654403 541.96711797 142.51171875 547.875 C135.71125386 558.29543508 128.89546243 568.70459342 122 579.0625 C121.40598389 579.95582031 120.81196777 580.84914063 120.19995117 581.76953125 C119.65959229 582.5790625 119.1192334 583.38859375 118.5625 584.22265625 C118.08941406 584.93172119 117.61632813 585.64078613 117.12890625 586.37133789 C116 588 116 588 115 589 C113.35509451 589.09608663 111.70604309 589.12187787 110.05833435 589.12025452 C108.98836212 589.12162918 107.91838989 589.12300385 106.81599426 589.12442017 C105.63204575 589.12082489 104.44809723 589.11722961 103.22827148 589.11352539 C101.36999725 589.11374443 101.36999725 589.11374443 99.47418213 589.1139679 C96.06730167 589.11338892 92.66048116 589.10835959 89.25361133 589.10139394 C85.69683174 589.09515993 82.14005142 589.09455656 78.58326721 589.09336853 C71.84363418 589.09025535 65.10401729 589.08204215 58.36439139 589.07201904 C50.69341602 589.06085748 43.02243989 589.05534735 35.35145843 589.05032361 C19.56762959 589.03985952 3.78381687 589.02226035 -12 589 C-11.16311741 585.2015299 -9.64583972 582.64819297 -7.484375 579.390625 C-6.9401741 578.56503334 -6.9401741 578.56503334 -6.38497925 577.72276306 C-5.17851906 575.89501096 -3.96420958 574.07261129 -2.75 572.25 C-1.89182259 570.95262172 -1.03424967 569.65484342 -0.17724609 568.35668945 C1.62905698 565.62173939 3.43809596 562.88862834 5.24902344 560.15673828 C9.21101002 554.17567246 13.14112318 548.17372914 17.07342529 542.17312622 C19.27132406 538.82010669 21.47168467 535.4687036 23.671875 532.1171875 C24.5592504 530.76530316 25.44662019 529.41341514 26.33398438 528.06152344 C27.66707007 526.03063735 29.00016101 523.99975471 30.33325195 521.96887207 C33.43063611 517.25016986 36.52790671 512.53139313 39.625 507.8125 C40.06116638 507.14793793 40.49733276 506.48337585 40.94671631 505.79867554 C47.13558048 496.36868707 53.31969157 486.9355977 59.5 477.5 C68.77230676 463.343788 78.05663167 449.19547909 87.34277344 435.04833984 C89.98136271 431.02847972 92.61963871 427.00841406 95.2578125 422.98828125 C95.69053467 422.3288855 96.12325684 421.66948975 96.5690918 420.9901123 C97.87939987 418.99341171 99.18970127 416.99670673 100.5 415 C105.32932013 407.64081098 110.15865042 400.28162874 114.98883057 392.92300415 C124.21887269 378.86131105 133.44598211 364.79771927 142.66149902 350.72650146 C147.69370212 343.04283442 152.72943744 335.36150783 157.772995 327.68528748 C160.03078467 324.24854107 162.28611689 320.81024063 164.53540039 317.36791992 C168.40528079 311.44886609 172.29076674 305.54722111 176.28515625 299.7109375 C176.91115723 298.78482666 177.5371582 297.85871582 178.18212891 296.90454102 C179.31391936 295.23330051 180.45977736 293.57145941 181.62255859 291.92163086 C182.1067627 291.20112549 182.5909668 290.48062012 183.08984375 289.73828125 C183.51128662 289.13024658 183.93272949 288.52221191 184.36694336 287.89575195 C185.22902833 285.91179636 185.22902833 285.91179636 184.28125 283.52026367 C183.10363034 281.20384452 181.87067681 279.08445747 180.41015625 276.9375 C179.88317139 276.15608643 179.35618652 275.37467285 178.81323242 274.56958008 C178.23549072 273.72161865 177.65774902 272.87365723 177.0625 272 C175.78791391 270.10884653 174.5145432 268.21687353 173.2421875 266.32421875 C172.55737305 265.30634277 171.87255859 264.2884668 171.16699219 263.23974609 C167.29945708 257.45761552 163.49469511 251.63446395 159.6875 245.8125 C158.87249907 244.56704299 158.05747618 243.32160035 157.24243164 242.07617188 C155.21612627 238.9792299 153.19083225 235.88162805 151.16595459 232.78375244 C149.33623066 229.9845229 147.50596392 227.18564838 145.67578125 224.38671875 C143.58714551 221.19233468 141.49861541 217.99788178 139.41040039 214.80322266 C134.15345319 206.76146481 128.89068804 198.72353562 123.625 190.6875 C123.23024475 190.08505463 122.8354895 189.48260925 122.42877197 188.86190796 C119.61935699 184.57449017 116.80970525 180.28722756 114 176 C110.79150454 171.10427289 107.58311309 166.20847768 104.375 161.3125 C103.98008362 160.70981293 103.58516724 160.10712585 103.17828369 159.48617554 C96.91727898 149.93072257 90.66377264 140.37038699 84.41357422 130.80786133 C79.11451989 122.70165052 73.80847726 114.60004109 68.5 106.5 C61.79812359 96.27381429 55.10338107 86.04300063 48.4140625 75.80859375 C42.71725664 67.09396323 37.01236334 58.38465295 31.30508423 49.67687988 C26.94302447 43.02147668 22.58309624 36.36470178 18.23046875 29.703125 C17.84525055 29.11362061 17.46003235 28.52411621 17.06314087 27.91674805 C15.24333603 25.13172603 13.42402526 22.34638437 11.60546875 19.56054688 C10.95578125 18.56603516 10.30609375 17.57152344 9.63671875 16.546875 C9.02489746 15.60908203 8.41307617 14.67128906 7.78271484 13.70507812 C5.57729184 10.35858581 3.31935562 7.04905514 1.04223633 3.75097656 C0 2 0 2 0 0 Z " fill="#000000" transform="translate(1593,971)"/>
<path d="M0 0 C0.73089844 0.60714844 1.46179687 1.21429687 2.21484375 1.83984375 C6.97231549 5.8668016 11.03339382 10.20033009 15 15 C15.42265137 15.49435547 15.84530273 15.98871094 16.28076172 16.49804688 C47.29431948 52.81186807 63.12562737 99.25705812 59.69140625 146.87890625 C53.60202394 216.83059476 15.32279223 279.89943882 -29.48828125 332.0546875 C-31.87531496 334.85379079 -34.19360151 337.69685091 -36.5 340.5625 C-40.62807319 345.63751471 -45.00345591 350.44015416 -49.44921875 355.234375 C-51.48401883 357.44055947 -53.47646238 359.66632261 -55.4375 361.9375 C-62.40399234 369.95901402 -69.64483092 377.73774353 -77.21875 385.1875 C-79.00162104 387.00164948 -80.65999718 388.87938349 -82.3125 390.8125 C-85.2225047 394.20195627 -88.32160325 397.36451107 -91.5 400.5 C-94.59492611 403.55336953 -97.61934337 406.62323755 -100.4375 409.9375 C-103.93710497 414.04426535 -107.75982009 417.78724806 -111.59521484 421.57568359 C-114.95044557 424.90566329 -118.09717875 428.33922489 -121.16015625 431.94140625 C-123.50494781 434.56498407 -125.99627553 437.02993339 -128.5 439.5 C-132.88488123 443.83656298 -137.00720267 448.30406855 -141 453 C-141.33 453.33 -141.66 453.66 -142 454 C-73.69 454.33 -5.38 454.66 65 455 C65 489.65 65 524.3 65 560 C-69.64 560 -204.28 560 -343 560 C-343 504 -343 504 -334.05859375 489.625 C-330.21831114 486.1659561 -326.52784457 483.09295101 -322.4375 480 C-320.46058244 478.31428915 -318.49628202 476.61366859 -316.54492188 474.8984375 C-312.98148113 471.79128927 -309.369028 468.7936469 -305.65014648 465.875 C-301.9386857 462.89555034 -298.86755415 459.75597809 -295.81971741 456.11254883 C-292.17355053 451.87963577 -288.12305405 448.02325265 -284.15625 444.09375 C-282.7380835 442.68137068 -281.31991993 441.26898839 -279.90192413 439.85643768 C-276.93933555 436.90687976 -273.97215979 433.96193688 -271.00579834 431.01617432 C-268.55418969 428.58122894 -266.10362669 426.14525184 -263.65563965 423.70666504 C-261.82931571 421.88779387 -260.00074639 420.07117348 -258.16955566 418.25720215 C-254.49907959 414.60119831 -250.88976914 410.94489923 -247.51367188 407.01367188 C-243.24511716 402.04584234 -238.58781492 397.48264388 -233.9375 392.875 C-232.97748625 391.9194063 -232.01777547 390.96350816 -231.05834961 390.00732422 C-227.53229527 386.49449408 -224.0007571 382.98719427 -220.46936035 379.47973633 C-217.47308792 376.50334483 -214.47897769 373.52480843 -211.48757935 370.54351807 C-210.1011466 369.16346867 -208.71162702 367.78652256 -207.32202148 366.40966797 C-202.96747485 362.07189004 -198.78959577 357.67292897 -194.78613281 353.01098633 C-191.23440892 349.01214137 -187.39297373 345.29288476 -183.59375 341.53125 C-182.71021851 340.65150513 -181.82668701 339.77176025 -180.91638184 338.86535645 C-177.6402768 335.60343055 -174.3596502 332.34607436 -171.07867432 329.08905029 C-167.85169462 325.8851274 -164.6286192 322.67730884 -161.40625 319.46875 C-160.56751343 318.63831177 -159.72877686 317.80787354 -158.86462402 316.95227051 C-154.55628921 312.66177559 -150.40557039 308.30454464 -146.45690918 303.67956543 C-144.42029539 301.3317004 -142.22599023 299.16741154 -140 297 C-136.42916488 293.46686601 -133.03448775 289.86626905 -129.76953125 286.05078125 C-127.76213977 283.72433417 -125.69533362 281.45807314 -123.625 279.1875 C-119.78193702 274.92389983 -116.10677266 270.55447727 -112.5 266.08984375 C-110.67996428 263.84039335 -108.84781118 261.60526208 -107 259.37890625 C-82.08832834 229.26101776 -60.54875597 195.18775571 -54 156 C-53.80470703 154.83210938 -53.80470703 154.83210938 -53.60546875 153.640625 C-51.29387826 136.75060379 -53.30005864 119.27296061 -61 104 C-61.46921875 103.02804687 -61.9384375 102.05609375 -62.421875 101.0546875 C-71.09454678 84.61095833 -86.14763654 73.21072453 -103.49609375 67.03125 C-126.23923554 60.33761629 -149.32272541 61.40275429 -170.5390625 72.3046875 C-192.13212939 84.43793461 -205.36479044 104.32664206 -211.97265625 127.8515625 C-214.88717459 139.09443157 -216.03615441 150.43385292 -217 162 C-253.3 162 -289.6 162 -327 162 C-327 153.2399068 -326.94632632 145.14434145 -325.8125 136.5625 C-325.61503174 135.03677368 -325.61503174 135.03677368 -325.41357422 133.48022461 C-318.11903306 80.12809861 -294.67264805 29.31601022 -251.2902832 -4.11572266 C-245.08286165 -8.78004189 -238.69244281 -13.06376474 -232 -17 C-231.31905273 -17.4007373 -230.63810547 -17.80147461 -229.93652344 -18.21435547 C-159.62395131 -58.86232324 -62.06942273 -52.74443903 0 0 Z " fill="#000000" transform="translate(1467,1000)"/>
<path d="M0 0 C37.29 0 74.58 0 113 0 C113.04419063 53.41933347 113.08108041 106.83864952 113.10213066 160.25799607 C113.10463171 166.58190952 113.10722039 172.90582293 113.10986328 179.22973633 C113.11065021 181.11799603 113.11065021 181.11799603 113.11145304 183.04440238 C113.1201271 203.35798938 113.13588032 223.67156491 113.15430559 243.98514513 C113.1730885 264.8690726 113.18413435 285.75299412 113.18817699 306.63692969 C113.19090475 319.49643079 113.19948166 332.35589948 113.21583293 345.21539059 C113.22650372 354.06474498 113.22957812 362.91408292 113.22700275 371.76344327 C113.22573695 376.84919555 113.22750783 381.93489171 113.23841095 387.0206337 C113.27648336 405.75907719 113.17757366 424.44926871 112.09909058 443.16142273 C112.059399 443.85770166 112.01970742 444.55398059 111.97881307 445.27135888 C109.16955704 493.0973958 100.46243171 537.64679374 64.00292969 571.25146484 C58.42509352 576.12085327 52.31199986 580.15454034 46 584 C45.09628662 584.5580835 45.09628662 584.5580835 44.17431641 585.12744141 C24.68343251 596.95030678 0.89193589 603.0734531 -21.828125 603.203125 C-22.65086914 603.21013931 -23.47361328 603.21715363 -24.32128906 603.22438049 C-26.96424887 603.24180527 -29.60698485 603.24823336 -32.25 603.25 C-33.6022467 603.25101212 -33.6022467 603.25101212 -34.98181152 603.25204468 C-47.89818884 603.23665091 -60.36087953 602.88504749 -73 600 C-74.18601807 599.75056641 -74.18601807 599.75056641 -75.39599609 599.49609375 C-110.7950787 592.001287 -141.91486994 574.57457504 -168.49609375 550.28125 C-170.16076737 548.76460508 -171.84054101 547.26436472 -173.53515625 545.78125 C-182.7364346 537.70346623 -190.47634944 528.63519282 -198 519 C-194.68374563 511.07378764 -186.33176468 505.18741316 -179.9296875 499.7109375 C-177.16029838 497.25548723 -174.59964876 494.60903661 -172.00390625 491.97265625 C-169.41753849 489.42662171 -166.6846472 487.07978443 -163.93359375 484.71484375 C-162.04505403 483.03995701 -160.26844352 481.30052413 -158.5 479.5 C-156.10946833 477.06610268 -153.64953738 474.78644441 -151.0625 472.5625 C-148.25423653 470.14382221 -145.60029407 467.64100317 -143 465 C-139.78098426 461.73058871 -136.42008344 458.71118714 -132.94140625 455.72265625 C-130.40447664 453.47157786 -128.05109983 451.06353385 -125.67578125 448.64453125 C-123.244864 446.25894579 -120.65231288 444.13478841 -118 442 C-114.03551507 443.55451961 -111.67457647 446.30934242 -108.9375 449.4375 C-107.95486539 450.53021341 -106.97044566 451.62132379 -105.984375 452.7109375 C-105.48615234 453.26233398 -104.98792969 453.81373047 -104.47460938 454.38183594 C-89.65504274 470.64410211 -73.26134338 483.43437406 -52 490 C-50.81470703 490.37125 -50.81470703 490.37125 -49.60546875 490.75 C-39.36482788 493.48590405 -28.3000002 493.33333345 -19 488 C-10.37750187 482.5898051 -6.99389454 473.57607578 -4.62109375 464.03125 C-1.09513277 446.82278637 -0.8514038 429.24672625 -0.84178162 411.75146484 C-0.83720385 409.9639907 -0.83220209 408.17651761 -0.82681805 406.38904572 C-0.81336573 401.52252087 -0.80585651 396.65600293 -0.79939139 391.78946447 C-0.79133003 386.52452135 -0.77765234 381.25959232 -0.76467896 375.99465942 C-0.74299695 366.88780157 -0.72482253 357.78094224 -0.70907402 348.67407227 C-0.68629957 335.50728991 -0.65816753 322.34052322 -0.62875474 309.17375422 C-0.58117131 287.8082259 -0.53788227 266.44269114 -0.49731445 245.07714844 C-0.45791233 224.33039856 -0.4164749 203.58365438 -0.37231445 182.83691406 C-0.36822804 180.91660728 -0.36822804 180.91660728 -0.36405908 178.95750642 C-0.35037883 172.53468586 -0.33665871 166.11186538 -0.32291877 159.68904495 C-0.20909941 106.45937452 -0.103053 53.22969258 0 0 Z " fill="#000000" transform="translate(927,971)"/>
<path d="M0 0 C3.12324544 1.38629244 5.24190707 2.99511571 7.64453125 5.4140625 C8.32193359 6.09339844 8.99933594 6.77273438 9.69726562 7.47265625 C10.39529297 8.18292969 11.09332031 8.89320313 11.8125 9.625 C12.49892578 10.31207031 13.18535156 10.99914062 13.89257812 11.70703125 C17.88541486 15.73386565 21.6806926 19.87744149 25.38549805 24.16943359 C27.64937719 26.73628159 30.05094902 29.10857374 32.5 31.5 C36.22120001 35.16565971 39.73684504 38.93168361 43.125 42.90625 C45.48345248 45.53985527 47.98445404 48.01826514 50.5 50.5 C54.21845505 54.16847581 57.73668195 57.93149229 61.125 61.90625 C63.48345248 64.53985527 65.98445404 67.01826514 68.5 69.5 C72.21845505 73.16847581 75.73668195 76.93149229 79.125 80.90625 C81.48345248 83.53985527 83.98445404 86.01826514 86.5 88.5 C90.21845505 92.16847581 93.73668195 95.93149229 97.125 99.90625 C99.48345248 102.53985527 101.98445404 105.01826514 104.5 107.5 C108.21845505 111.16847581 111.73668195 114.93149229 115.125 118.90625 C117.48345248 121.53985527 119.98445404 124.01826514 122.5 126.5 C126.21845505 130.16847581 129.73668195 133.93149229 133.125 137.90625 C135.48345043 140.53985298 137.98443191 143.01828881 140.5 145.5 C144.36166876 149.31923284 148.05150395 153.20077466 151.5625 157.34375 C152.98784197 159.04119224 152.98784197 159.04119224 154.6875 160.59375 C156 162 156 162 156 164 C80.39595053 164.14731545 4.79468722 163.93534569 -70.80859375 163.59765625 C-72.53649134 163.58994167 -72.53649134 163.58994167 -74.29929596 163.58207124 C-103.12215946 163.4532032 -131.94499832 163.31917286 -160.76782866 163.1831104 C-178.98819694 163.09710797 -197.20857209 163.01276047 -215.42895508 162.92993164 C-217.21611937 162.92180525 -217.21611937 162.92180525 -219.03938799 162.91351469 C-223.84664388 162.89165783 -228.65389979 162.86980535 -233.46115573 162.84795914 C-345.18147201 162.34008687 -456.9014996 161.78528788 -602 161 C-601.67 139.22 -601.34 117.44 -601 95 C-519.88783691 94.86592261 -438.77935378 95.0678716 -357.66796875 95.4375 C-356.46491366 95.44297317 -355.26185857 95.44844633 -354.02234727 95.45408535 C-323.01898329 95.59521841 -292.01564646 95.7419013 -261.01231873 95.89076424 C-243.08235515 95.976821 -225.15238601 96.0616287 -207.22241211 96.14550781 C-205.9455261 96.1514818 -204.66864009 96.15745579 -203.35306057 96.16361082 C-189.383394 96.22894507 -175.4137264 96.29405481 -161.44405842 96.35908508 C-157.73717479 96.37634493 -154.03029117 96.39360612 -150.32340755 96.410869 C-147.87978642 96.42224749 -145.43616526 96.43362238 -142.99254409 96.44499362 C-127.61950206 96.51654874 -112.24646492 96.58904871 -96.87343252 96.66264343 C-89.17008266 96.69950868 -81.46673097 96.73598219 -73.7633787 96.77233958 C-68.68605557 96.79632759 -63.6087336 96.82051791 -58.53141403 96.84524918 C-38.35416417 96.94343965 -18.17756288 97.0359149 2 97 C1.13988312 96.06064606 0.27976624 95.12129211 -0.60641479 94.1534729 C-1.09023054 93.62508631 -1.57404629 93.09669971 -2.07252312 92.55230141 C-6.92949749 87.25116602 -11.87475719 82.08319997 -16.99609375 77.03515625 C-18.87678207 75.12513946 -20.63412505 73.16219409 -22.375 71.125 C-25.26218504 67.75437933 -28.34295055 64.6154883 -31.5 61.5 C-43.08823747 50.00740136 -43.08823747 50.00740136 -46 44 C-32.18796762 30.01337732 -32.18796762 30.01337732 -25.98828125 24.76953125 C-22.88179315 22.00481788 -19.99793356 19.01852017 -17.07885742 16.05932617 C-13.75564203 12.70827719 -10.31377809 9.5670636 -6.7265625 6.50390625 C-4.36285001 4.44501641 -2.18150266 2.24967462 0 0 Z " fill="#F3DB4C" transform="translate(1244,695)"/>
<path d="M0 0 C12.85319864 12.53774375 18.60133126 27.57526299 19.21264648 45.32861328 C19.22976609 62.807726 12.6367425 78.15544393 0.83374023 90.88720703 C-13.21930311 104.21726422 -28.49837352 108.94849769 -47.45019531 108.71728516 C-64.46486771 108.21177372 -78.00287483 102.09607424 -90.11938477 90.15283203 C-102.9354166 76.50995943 -108.20652487 60.62333397 -107.99047852 42.06298828 C-107.07803155 25.55286306 -100.59951694 11.79307726 -88.78344727 0.31689453 C-88.07317383 -0.40240234 -87.36290039 -1.12169922 -86.63110352 -1.86279297 C-62.68201228 -24.81580988 -23.335968 -21.80896866 0 0 Z " fill="#000000" transform="translate(675.783447265625,1470.68310546875)"/>
</svg>
